# xmcd
#
# Track frame offsets:
#  150
#  17992
#  31127
#  49100
#  69247
#  83040
#  94305
#  118125
#  137812
#  159385
#  175065
#  189727
#  221215
#
# Disc length: 4265 seconds
#
# Revision: 0
# Processed by: cddbd v1.4PL0 Copyright (c) Steve Scherf et al.
# Submitted via: AltoMP3_Maker 3.0
#
DISCID=b410a70d
DTITLE=Steve Hackett - Blues With A Feeling
DYEAR=1900
DGENRE=Blues
TTITLE0=Born In Chicago
TTITLE1=The Stumble
TTITLE2=Love Of An Other Kind
TTITLE3=Way Down South
TTITLE4=A Blue Part Of Town
TTITLE5=Footloose
TTITLE6=Tombstone Roller
TTITLE7=Blues With A Feeling
TTITLE8=Big Dallas Sky
TTITLE9=The 13th Floor
TTITLE10=So Many Roads
TTITLE11=Solid Ground
TTITLE12=PC Stuff
EXTD=
EXTT0=
EXTT1=
EXTT2=
EXTT3=
EXTT4=
EXTT5=
EXTT6=
EXTT7=
EXTT8=
EXTT9=
EXTT10=
EXTT11=
EXTT12=
PLAYORDER=
